<?xml version="1.0" standalone="no"?>
<!DOCTYPE svg PUBLIC "-//W3C//DTD SVG 20010904//EN"
 "http://www.w3.org/TR/2001/REC-SVG-20010904/DTD/svg10.dtd">
<svg version="1.0" xmlns="http://www.w3.org/2000/svg"
 width="700.000000pt" height="700.000000pt" viewBox="0 0 700.000000 700.000000"
 preserveAspectRatio="xMidYMid meet">
<metadata>
Created by potrace 1.14, written by Peter Selinger 2001-2017
</metadata>
<g transform="translate(0.000000,700.000000) scale(0.100000,-0.100000)"
fill="#000000" stroke="none">
<path d="M752 6989 c-83 -10 -225 -55 -298 -94 -135 -74 -265 -202 -342 -337
-44 -76 -89 -218 -101 -318 -15 -118 -15 -5362 0 -5480 41 -330 265 -606 574
-709 50 -17 134 -35 185 -41 67 -8 904 -10 2795 -8 2532 3 2704 5 2765 21 172
46 305 122 420 237 131 134 216 311 239 500 15 118 15 5362 0 5480 -49 399
-358 704 -758 750 -107 12 -5373 11 -5479 -1z m5177 -2414 l401 -480 -175 -3
-175 -2 0 -835 0 -835 -445 0 -445 0 0 835 0 835 -191 2 -190 3 403 483 c222
265 406 481 410 480 3 -2 187 -219 407 -483z m-3769 260 c200 -30 363 -96 505
-202 200 -149 321 -347 380 -620 l7 -33 -259 0 -258 0 -25 71 c-44 130 -144
245 -269 308 -79 41 -184 61 -313 61 -146 0 -235 -18 -347 -72 -68 -32 -101
-57 -167 -122 -70 -70 -90 -98 -133 -187 -59 -122 -87 -228 -101 -391 -20
-229 16 -451 99 -623 131 -269 368 -399 696 -382 126 7 203 25 292 69 112 55
217 181 254 306 l12 42 259 0 c142 0 258 -3 258 -6 0 -33 -51 -188 -86 -263
-55 -118 -113 -199 -201 -281 -211 -199 -473 -291 -828 -291 -379 0 -637 95
-868 320 -138 134 -233 288 -296 478 -105 316 -105 711 0 1028 126 379 405
653 770 757 166 47 436 61 619 33z m2280 -1090 l0 -835 190 -2 190 -3 -401
-480 c-220 -264 -403 -480 -407 -480 -9 0 -801 947 -802 958 0 4 77 7 170 7
l170 0 0 835 0 835 445 0 445 0 0 -835z"/>
</g>
</svg>
